<svg xmlns="http://www.w3.org/2000/svg" viewBox="0 0 24 24" xml:space="preserve" width="24"
    height="24">
    <path d="M17.747 17.576a9 9 0 0 0 .232-.385c.64.581 1.489.938 2.42.938A3.605 3.605 0 0 0 24 14.528a3.607 3.607 0 0 0-3.603-3.601 3.6 3.6 0 0 0-1.19.203V9.273c0-.439-.352-.813-.791-.813H2.276a.83.83 0 0 0-.82.813v3.273c0 1.787.519 3.522 1.476 5.031a9.3 9.3 0 0 0 1.502 1.798H.795a.794.794 0 1 0 0 1.589h1.45a3.094 3.094 0 0 0 3.091 2.649H15.35a3.1 3.1 0 0 0 3.091-2.649h1.455a.795.795 0 0 0 0-1.59h-3.639a9.2 9.2 0 0 0 1.49-1.798m1.456-4.664a2 2 0 0 1 1.196-.395c1.109 0 2.012.903 2.012 2.012s-.903 2.012-2.012 2.012a2.01 2.01 0 0 1-1.7-.938 9.4 9.4 0 0 0 .504-2.69m-2.39 8.052c-.2.636-.779 1.06-1.462 1.06H5.336a1.51 1.51 0 0 1-1.462-1.06zm-3.236-1.59H7.114c-2.472-1.325-4.069-3.983-4.069-6.829v-2.497h14.572v2.497c0 2.845-1.568 5.504-4.04 6.829M7.964 5.733l-.39-.313a.62.62 0 0 1-.232-.493.62.62 0 0 1 .246-.487c.538-.409.856-1.031.873-1.707S8.19 1.42 7.672.985a.795.795 0 0 0-1.023 1.217c.199.167.225.38.222.492a.61.61 0 0 1-.246.48 2.2 2.2 0 0 0-.873 1.731 2.2 2.2 0 0 0 .826 1.754l.39.313a.8.8 0 0 0 .497.175.794.794 0 0 0 .498-1.415m3.302.412-.457-.367a.86.86 0 0 1-.324-.688.86.86 0 0 1 .342-.679 2.44 2.44 0 0 0 .969-1.896 2.44 2.44 0 0 0-.876-1.941.795.795 0 0 0-1.023 1.217.86.86 0 0 1 .309.685.86.86 0 0 1-.342.669 2.44 2.44 0 0 0-.97 1.923c-.01.761.324 1.471.918 1.948l.457.367a.8.8 0 0 0 .497.175.794.794 0 0 0 .498-1.414m3.179-.41-.39-.313a.62.62 0 0 1-.232-.493.62.62 0 0 1 .246-.487c.538-.409.856-1.031.873-1.707S14.668 1.42 14.15.985a.795.795 0 0 0-1.023 1.217c.199.167.225.38.222.492a.61.61 0 0 1-.246.48 2.2 2.2 0 0 0-.873 1.731 2.2 2.2 0 0 0 .826 1.754l.39.313a.8.8 0 0 0 .497.175.794.794 0 0 0 .498-1.415"/>
  </svg>
  